# xmcd
#
# Track frame offsets: 
#        167
#        14496
#        36727
#        53800
#        74074
#        92246
#        108822
#        126626
#        146974
#        167713
#        192055
#        211977
#        227159
#        247549
#        268189
#        290063
#        312045
#
# Disc length: 4433 seconds
#
# Revision: 1
# Processed by: cddbd v1.5.2PL0 Copyright (c) Steve Scherf et al.
# Submitted via: ExactAudioCopy v0.99pb5
#
DISCID=09114f11
DTITLE=Psy4 de la Rime - Block Party Special Edition
DYEAR=2005
DGENRE=Rap
TTITLE0=Voici
TTITLE1=Le son des bandits (avec Saleem)
TTITLE2=Sale bête
TTITLE3=Classic
TTITLE4=Terre promise
TTITLE5=Block party
TTITLE6=L'enjeu
TTITLE7=Repère les collabos
TTITLE8=La vengeance aux 2 visages
TTITLE9=2 sortie
TTITLE10=A coeur ouvert
TTITLE11=Tchao tchao
TTITLE12=Jamais j'oublierai
TTITLE13=Crime psycologic
TTITLE14=J'ai besoin d'ailes
TTITLE15=J'ai écrit un album
TTITLE16=Au taquet
EXTD=
EXTT0=
EXTT1=
EXTT2=
EXTT3=
EXTT4=
EXTT5=
EXTT6=
EXTT7=
EXTT8=
EXTT9=
EXTT10=
EXTT11=
EXTT12=
EXTT13=
EXTT14=
EXTT15=
EXTT16=
PLAYORDER=
